<svg width="159" height="50" viewBox="0 0 159 50" fill="none" xmlns="http://www.w3.org/2000/svg">
<path d="M55.6976 36.5345C52.8351 35.9892 51.6342 35.5462 51.0849 31.4269L49.7122 22.2C48.9434 16.873 47.1864 11.9849 40.1009 11.9849C38.1981 11.9904 36.3201 12.4167 34.6014 13.2332C32.8828 14.0498 31.366 15.2364 30.1598 16.708C29.6836 17.1827 29.375 17.7994 29.2806 18.4651C29.2813 18.7563 29.3973 19.0353 29.6032 19.2412C29.809 19.4471 30.0881 19.563 30.3792 19.5638C30.8966 19.5006 31.3788 19.2693 31.7519 18.9054C33.5137 17.0575 35.9053 15.9385 38.4529 15.7702C42.0774 15.7702 44.2189 17.6377 45.0436 23.7335L45.154 24.4478C43.0393 23.7768 40.8364 23.4249 38.6179 23.4036C31.6428 23.4036 27.469 27.2476 27.469 32.0267C27.469 36.8603 31.1494 40.2053 36.8063 40.2053C38.6956 40.252 40.5726 39.8883 42.3077 39.1392C44.0428 38.3902 45.5948 37.2736 46.8565 35.8666C47.0851 37.0398 47.7138 38.0973 48.6354 38.8586C49.557 39.6198 50.7142 40.0375 51.9096 40.0404C54.4913 40.0404 56.5782 38.3924 56.5782 37.3496C56.5755 36.9189 56.3015 36.6449 55.6976 36.5345ZM38.4529 36.9189C37.7169 36.9816 36.9759 36.8902 36.2771 36.6506C35.5784 36.4109 34.9372 36.0283 34.3946 35.5271C33.852 35.0259 33.4197 34.4171 33.1255 33.7395C32.8312 33.062 32.6814 32.3305 32.6856 31.5918C32.6856 28.2958 35.1024 26.2089 39.7152 26.2089C41.706 26.2224 43.6782 26.5946 45.537 27.3076L46.3058 32.745C45.3956 33.9874 44.2164 35.0081 42.8564 35.7309C41.4963 36.4536 39.9906 36.8597 38.4516 36.9189H38.4529Z" fill="#0062A8"/>
<path d="M65.9136 33.7329V1.92199C65.9136 0.712907 65.641 0 64.7605 0C64.2656 0 63.7163 0.164936 60.9165 1.48306C58.0049 2.85572 57.0725 3.51546 57.0725 4.3933C57.0725 6.53475 60.9724 4.66593 60.9724 8.0737V33.7342C60.9724 38.1834 57.5128 36.5968 57.5128 38.6769C57.5185 38.8338 57.5564 38.9878 57.624 39.1295C57.6917 39.2711 57.7878 39.3974 57.9062 39.5004C58.0247 39.6034 58.1631 39.681 58.3128 39.7283C58.4624 39.7756 58.6202 39.7917 58.7764 39.7756C59.9841 39.7756 61.5217 39.6106 63.4451 39.6106C65.4229 39.6106 67.0696 39.7756 68.2786 39.7756C68.4281 39.786 68.5782 39.7652 68.7192 39.7144C68.8602 39.6636 68.9891 39.584 69.0976 39.4806C69.2061 39.3772 69.2919 39.2524 69.3494 39.114C69.407 38.9756 69.435 38.8267 69.4318 38.6769C69.4318 36.59 65.9136 38.1821 65.9136 33.7329Z" fill="#0062A8"/>
<path d="M127.919 32.6361C127.354 32.7116 126.842 33.0052 126.49 33.4539C125.513 34.5359 124.318 35.3989 122.983 35.9862C121.648 36.5735 120.205 36.8719 118.747 36.8617C114.188 36.8617 110.618 33.6761 109.135 29.1724L126.766 23.8999C127.584 23.6273 127.919 23.296 127.919 22.1429C127.878 20.7092 127.554 19.2977 126.965 17.99C126.376 16.6823 125.534 15.5042 124.487 14.5238C123.44 13.5434 122.21 12.78 120.866 12.2778C119.523 11.7756 118.093 11.5445 116.66 11.5978C109.465 11.5978 103.149 17.5846 103.149 26.2077C103.149 35.38 109.465 40.5966 116.934 40.5966C121.713 40.5966 126.49 38.1253 128.52 35.2137C128.794 34.8234 128.964 34.3698 129.015 33.8956C129.026 33.7409 129.006 33.5857 128.957 33.4387C128.907 33.2917 128.83 33.1558 128.728 33.0388C128.626 32.9219 128.502 32.8261 128.363 32.757C128.225 32.6879 128.074 32.6468 127.919 32.6361ZM108.312 24.1848C108.312 18.5279 111.608 14.793 115.945 14.793C117.604 14.8059 119.196 15.4484 120.399 16.5904C121.602 17.7325 122.327 19.2889 122.426 20.9447C122.426 21.8784 122.153 22.1524 121.162 22.4277L108.476 26.3808C108.364 25.6518 108.309 24.9154 108.312 24.178V24.1848Z" fill="#0062A8"/>
<path d="M157.029 32.6361C156.464 32.7116 155.952 33.0052 155.601 33.4539C154.623 34.5358 153.428 35.3988 152.093 35.9861C150.759 36.5734 149.315 36.8718 147.857 36.8617C143.299 36.8617 139.729 33.6761 138.245 29.1724L155.875 23.8999C156.692 23.6273 157.028 23.296 157.028 22.1429C156.987 20.7092 156.663 19.2977 156.074 17.99C155.485 16.6823 154.643 15.5042 153.596 14.5238C152.549 13.5434 151.318 12.78 149.975 12.2778C148.631 11.7756 147.202 11.5445 145.768 11.5978C138.574 11.5978 132.257 17.5846 132.257 26.2077C132.257 35.38 138.573 40.5966 146.042 40.5966C150.82 40.5966 155.599 38.1253 157.629 35.2137C157.903 34.8234 158.073 34.3698 158.124 33.8956C158.145 33.5835 158.042 33.2755 157.837 33.0393C157.632 32.8031 157.341 32.6581 157.029 32.6361ZM137.422 24.1848C137.422 18.5279 140.717 14.793 145.056 14.793C146.714 14.8059 148.306 15.4484 149.509 16.5904C150.712 17.7325 151.437 19.2889 151.536 20.9447C151.536 21.8784 151.263 22.1524 150.272 22.4277L137.586 26.3808C137.474 25.6518 137.42 24.9154 137.422 24.178V24.1848Z" fill="#0062A8"/>
<path d="M101.722 9.95046C101.781 8.65142 100.435 8.23976 99.0954 8.74138C97.8931 9.19257 96.4755 8.95267 96.2492 7.78721C95.8048 5.504 98.3743 6.00426 99.6788 5.37314C100.043 5.19424 100.323 4.8812 100.461 4.49987C100.599 4.11854 100.583 3.69864 100.418 3.32847C100.285 3.08543 100.078 2.89124 99.8264 2.77427C99.5753 2.65729 99.2934 2.62366 99.0218 2.67827C98.1917 2.85275 97.2647 3.82056 96.5491 3.5234C95.9739 3.28349 95.7803 2.55832 95.6495 1.58097C95.6373 1.35039 95.5698 1.12613 95.4526 0.92719C95.3354 0.728249 95.172 0.560485 94.9762 0.43811C94.7804 0.315735 94.558 0.242354 94.3278 0.224183C94.0976 0.206012 93.8664 0.243586 93.6539 0.333722C93.4511 0.450779 93.2773 0.611939 93.1453 0.80527C93.0133 0.998601 92.9265 1.21915 92.8913 1.45058C92.8561 1.68202 92.8734 1.9184 92.9419 2.14225C93.0104 2.36609 93.1284 2.57165 93.2872 2.7437C94.4499 4.24312 95.1955 6.01516 93.9824 6.97616C92.6029 8.06664 91.8477 6.5754 91.1525 5.26136C91.067 5.0567 90.9347 4.87493 90.7662 4.73065C90.5978 4.58636 90.3978 4.48359 90.1824 4.43057C89.967 4.37755 89.7422 4.37577 89.526 4.42536C89.3098 4.47495 89.1082 4.57453 88.9375 4.71612C88.7895 4.90493 88.6818 5.12213 88.6212 5.35427C88.5606 5.5864 88.5483 5.82852 88.5851 6.0656C88.6219 6.30268 88.707 6.52967 88.8351 6.73249C88.9633 6.93532 89.1318 7.10965 89.3301 7.24469C90.8172 8.49193 91.4402 9.57016 90.9726 10.8242C90.5637 11.9256 88.9811 11.8561 87.7734 11.7593H87.5703C87.3458 11.7457 87.1277 11.7389 86.916 11.7389C86.7252 11.7389 86.5357 11.7211 86.3435 11.7211C78.0503 11.7211 73.4362 16.1144 73.4362 21.3324C73.4305 22.7511 73.8108 24.1447 74.5365 25.3637C75.2621 26.5828 76.3057 27.5816 77.5555 28.2529C75.579 29.5165 73.6025 31.3281 73.6025 33.3605C73.6281 34.2853 73.9602 35.1755 74.5467 35.891C75.1332 36.6065 75.9408 37.1069 76.8426 37.3135C73.9801 38.6317 72.3444 40.7213 72.3444 43.025C72.3444 47.1988 78.2766 50 86.9528 50C95.7953 50 101.728 46.3755 101.728 41.2679C101.728 37.3681 98.542 35.0071 93.2149 34.5123C91.3475 34.2929 85.9646 33.7981 81.0219 33.1942C78.935 32.9748 78.0558 32.5904 78.0558 31.6566C78.0558 30.6684 79.044 30.0086 80.0882 29.3502C81.9083 29.8779 83.7956 30.1369 85.6906 30.119C94.0383 30.119 98.542 25.6712 98.542 20.5623C98.5574 19.4925 98.346 18.4317 97.9217 17.4495C97.4974 16.4674 96.8698 15.5864 96.0802 14.8645L96.0557 14.8372C95.1764 13.9321 94.2686 12.9193 94.6803 12.111C95.7776 9.93547 101.584 13.0284 101.722 9.95046ZM80.3022 37.961C83.9267 38.3999 87.4967 38.7789 91.2861 39.1687C95.0211 39.6076 96.834 40.7608 96.834 42.7387C96.834 44.9906 93.1536 47.297 87.1682 47.297C80.797 47.297 77.1725 45.7035 77.1725 42.4634C77.2301 41.498 77.5527 40.5671 78.1048 39.7731C78.657 38.979 79.4172 38.3525 80.3022 37.9624V37.961ZM86.2344 27.3615C81.8957 27.3615 78.6556 24.7797 78.6556 20.6618C78.6556 16.8723 81.6217 14.4555 85.7437 14.4555C90.028 14.4555 93.3226 17.0918 93.3226 21.1566C93.3185 25.0006 90.347 27.3615 86.2344 27.3615Z" fill="#0062A8"/>
<path d="M23.7263 32.4696C23.2874 32.4696 22.9084 32.689 22.4082 33.2874C21.577 34.3922 20.4977 35.2859 19.2574 35.8966C18.0171 36.5073 16.6506 36.8177 15.2682 36.8029C9.7217 36.8029 5.27251 31.7498 5.27251 24.7748C5.27251 18.514 8.4581 14.3947 12.7969 14.3947C16.8058 14.3947 18.1798 17.4154 18.8927 21.3698C19.0576 22.4139 19.4379 23.0178 20.1563 23.0178C20.7015 23.0178 21.09 22.6334 21.6394 22.0295C22.8979 20.7076 23.6888 19.0099 23.8912 17.1959C23.8912 14.9441 19.333 11.6494 13.7851 11.6494C6.20624 11.6494 0 17.6362 0 26.4787C0 35.5952 6.15172 40.5937 13.2903 40.5937C18.2875 40.5937 22.6263 38.0133 24.2743 35.1017C24.5516 34.6722 24.7213 34.1822 24.7691 33.6732C24.7759 32.9098 24.337 32.4696 23.7263 32.4696Z" fill="#0062A8"/>
</svg>
