<svg width="48" height="48" viewBox="0 0 48 48" fill="none" xmlns="http://www.w3.org/2000/svg">
<path d="M24 48C37.2548 48 48 37.2548 48 24C48 10.7452 37.2548 0 24 0C10.7452 0 0 10.7452 0 24C0 37.2548 10.7452 48 24 48Z" fill="#049850"/>
<path d="M32.3602 26.8204C32.7202 26.8204 32.9602 26.8924 33.0802 27.0364C33.2242 27.1804 33.2962 27.4924 33.2962 27.9724V28.5844C33.2962 29.0644 33.2242 29.3764 33.0802 29.5204C32.9602 29.6644 32.7202 29.7364 32.3602 29.7364H29.7322V32.3644C29.7322 32.9884 29.8522 33.4324 30.0922 33.6964C30.3562 33.9604 30.7162 34.2004 31.1722 34.4164C31.4842 34.5364 31.7122 34.6684 31.8562 34.8124C32.0242 34.9324 32.1082 35.1244 32.1082 35.3884C32.1082 35.8684 31.8082 36.1084 31.2082 36.1084L30.0202 36.0724C29.2042 36.0244 28.5082 36.0004 27.9322 36.0004C27.3082 36.0004 26.5402 36.0244 25.6282 36.0724L24.2602 36.1084C23.6602 36.1084 23.3602 35.8684 23.3602 35.3884C23.3602 35.1004 23.4442 34.8964 23.6122 34.7764C23.8042 34.6324 24.0922 34.4884 24.4762 34.3444C25.0042 34.1764 25.4122 33.9604 25.7002 33.6964C25.9882 33.4324 26.1322 32.9884 26.1322 32.3644V29.7364H15.6562C15.1282 29.7364 14.7442 29.6404 14.5042 29.4484C14.2882 29.2564 14.1802 28.9324 14.1802 28.4764C14.1802 28.1164 14.3002 27.7324 14.5402 27.3244C14.7802 26.8924 15.1522 26.3044 15.6562 25.5604L24.9802 11.8444C25.3642 11.2684 25.7002 10.8964 25.9882 10.7284C26.2762 10.5364 26.7202 10.4404 27.3202 10.4404H28.0762C28.7002 10.4404 29.1322 10.5364 29.3722 10.7284C29.6122 10.8964 29.7322 11.1844 29.7322 11.5924V26.8204H32.3602ZM26.1682 26.8204V13.9324L17.4562 26.8204H26.1682Z" fill="white"/>
</svg>
