<svg width="48" height="48" viewBox="0 0 48 48" fill="none" xmlns="http://www.w3.org/2000/svg">
<path d="M24 48C37.2548 48 48 37.2548 48 24C48 10.7452 37.2548 0 24 0C10.7452 0 0 10.7452 0 24C0 37.2548 10.7452 48 24 48Z" fill="#049850"/>
<path d="M19.1678 36.1081C18.8798 36.1081 18.6638 36.0361 18.5198 35.8921C18.3758 35.7481 18.3038 35.5681 18.3038 35.3521C18.3038 35.0401 18.4118 34.8121 18.6278 34.6681C18.8678 34.5241 19.2398 34.3801 19.7438 34.2361C20.4158 34.0441 20.9198 33.8281 21.2558 33.5881C21.5918 33.3481 21.7598 32.9281 21.7598 32.3281V16.2001C21.7598 15.0001 21.3038 14.4001 20.3918 14.4001C20.0798 14.4001 19.5398 14.4721 18.7718 14.6161C18.2198 14.7361 17.7878 14.7961 17.4758 14.7961C17.1638 14.7961 16.9118 14.7241 16.7198 14.5801C16.5518 14.4121 16.4678 14.1961 16.4678 13.9321C16.4678 13.5001 16.7198 13.1881 17.2238 12.9961C17.8478 12.7801 18.4958 12.5881 19.1678 12.4201C20.7758 11.9641 21.8678 11.6401 22.4438 11.4481C23.1878 11.2081 23.8838 10.9321 24.5318 10.6201C24.8678 10.4761 25.1798 10.3561 25.4678 10.2601C25.7798 10.1401 26.0198 10.0801 26.1878 10.0801C26.4278 10.0801 26.6198 10.1641 26.7638 10.3321C26.9078 10.4761 26.9798 10.6561 26.9798 10.8721C26.9798 11.0881 26.9318 11.2681 26.8358 11.4121C26.7398 11.5561 26.5838 11.7361 26.3678 11.9521C26.0558 12.2401 25.8038 12.5401 25.6118 12.8521C25.4438 13.1641 25.3598 13.5961 25.3598 14.1481V32.3281C25.3598 32.9281 25.5278 33.3481 25.8638 33.5881C26.1998 33.8281 26.7038 34.0441 27.3758 34.2361C27.8798 34.3801 28.2398 34.5241 28.4558 34.6681C28.6958 34.8121 28.8158 35.0401 28.8158 35.3521C28.8158 35.5681 28.7438 35.7481 28.5998 35.8921C28.4558 36.0361 28.2398 36.1081 27.9518 36.1081L26.2598 36.0721C25.1558 36.0241 24.2438 36.0001 23.5238 36.0001C22.8038 36.0001 21.9158 36.0241 20.8598 36.0721L19.1678 36.1081Z" fill="white"/>
</svg>
