<svg width="48" height="48" viewBox="0 0 48 48" fill="none" xmlns="http://www.w3.org/2000/svg">
<path d="M24 48C37.2548 48 48 37.2548 48 24C48 10.7452 37.2548 0 24 0C10.7452 0 0 10.7452 0 24C0 37.2548 10.7452 48 24 48Z" fill="#049850"/>
<path d="M25.484 20.0879C26.996 20.2319 28.316 20.6999 29.444 21.4919C30.572 22.2599 31.436 23.2319 32.036 24.4079C32.636 25.5839 32.936 26.8319 32.936 28.1519C32.936 29.7119 32.528 31.1399 31.712 32.4359C30.896 33.7079 29.816 34.7159 28.472 35.4599C27.128 36.2039 25.676 36.5759 24.116 36.5759C22.004 36.5759 20.216 36.1079 18.752 35.1719C17.312 34.2359 16.28 33.1679 15.656 31.9679C15.344 31.4159 15.188 30.9239 15.188 30.4919C15.188 30.1559 15.284 29.9039 15.476 29.7359C15.668 29.5439 15.884 29.4479 16.124 29.4479C16.484 29.4479 16.82 29.7119 17.132 30.2399C17.684 31.2239 18.488 32.0759 19.544 32.7959C20.624 33.4919 21.872 33.8399 23.288 33.8399C24.968 33.8399 26.36 33.3479 27.464 32.3639C28.568 31.3559 29.12 30.0239 29.12 28.3679C29.12 27.3119 28.88 26.3639 28.4 25.5239C27.944 24.6599 27.32 23.9879 26.528 23.5079C25.736 23.0279 24.884 22.7879 23.972 22.7879C23.708 22.7879 23.396 22.8239 23.036 22.8959C22.7 22.9439 22.424 22.9679 22.208 22.9679C21.92 22.9679 21.68 22.8719 21.488 22.6799C21.32 22.4639 21.236 22.2119 21.236 21.9239C21.236 21.7319 21.284 21.5759 21.38 21.4559C21.5 21.3119 21.656 21.1559 21.848 20.9879C22.064 20.8199 22.256 20.6519 22.424 20.4839L23.54 19.2239C25.796 16.7039 27.524 14.6999 28.724 13.2119H23.612C22.748 13.2119 22.028 13.3079 21.452 13.4999C20.876 13.6919 20.312 14.0159 19.76 14.4719C19.232 14.9279 18.572 15.6119 17.78 16.5239C17.516 16.8359 17.3 17.0519 17.132 17.1719C16.988 17.2919 16.808 17.3519 16.592 17.3519C16.4 17.3519 16.232 17.2799 16.088 17.1359C15.944 16.9919 15.872 16.7879 15.872 16.5239C15.872 16.2839 15.944 15.9599 16.088 15.5519C16.256 15.1439 16.448 14.6879 16.664 14.1839L17.852 11.5199C18.164 10.8239 18.416 10.3559 18.608 10.1159C18.8 9.87586 19.052 9.75586 19.364 9.75586C19.628 9.75586 19.904 9.87586 20.192 10.1159C20.336 10.2119 20.492 10.3079 20.66 10.4039C20.852 10.4759 21.068 10.5119 21.308 10.5119H28.616C29.12 10.5119 29.708 10.4879 30.38 10.4399C30.62 10.4159 30.884 10.4039 31.172 10.4039C31.652 10.4039 31.988 10.5119 32.18 10.7279C32.396 10.9439 32.504 11.2079 32.504 11.5199C32.504 11.9519 32.156 12.5759 31.46 13.3919C29.276 15.9119 27.284 18.1439 25.484 20.0879Z" fill="white"/>
</svg>
