<svg width="48" height="48" viewBox="0 0 48 48" fill="none" xmlns="http://www.w3.org/2000/svg">
<path d="M24 48C37.2548 48 48 37.2548 48 24C48 10.7452 37.2548 0 24 0C10.7452 0 0 10.7452 0 24C0 37.2548 10.7452 48 24 48Z" fill="#049850"/>
<path d="M33.152 28.6915C33.368 28.6915 33.548 28.7635 33.692 28.9075C33.836 29.0515 33.908 29.2315 33.908 29.4475C33.908 29.6875 33.836 29.9995 33.692 30.3835C33.548 30.7435 33.272 31.3435 32.864 32.1835L31.352 35.4595C31.136 35.9155 30.92 36.2395 30.704 36.4315C30.488 36.6475 30.236 36.7555 29.948 36.7555C29.684 36.7555 29.468 36.7075 29.3 36.6115C29.132 36.5155 29.036 36.4555 29.012 36.4315C28.628 36.1435 28.208 35.9995 27.752 35.9995H18.644C18.236 35.9995 17.672 36.0235 16.952 36.0715L15.836 36.1075C15.5 36.1075 15.236 36.0235 15.044 35.8555C14.876 35.6635 14.792 35.4355 14.792 35.1715C14.792 34.9315 14.864 34.7035 15.008 34.4875C15.152 34.2715 15.404 33.9475 15.764 33.5155C16.82 32.3395 18.62 30.2875 21.164 27.3595L23.828 24.2995C25.124 22.8115 26.072 21.5395 26.672 20.4835C27.272 19.4035 27.572 18.2875 27.572 17.1355C27.572 15.8635 27.152 14.8315 26.312 14.0395C25.472 13.2475 24.356 12.8515 22.964 12.8515C21.788 12.8515 20.792 13.1515 19.976 13.7515C19.184 14.3515 18.404 15.2155 17.636 16.3435C17.42 16.6555 17.228 16.8835 17.06 17.0275C16.916 17.1715 16.736 17.2435 16.52 17.2435C16.256 17.2435 16.028 17.1595 15.836 16.9915C15.668 16.8235 15.584 16.5835 15.584 16.2715C15.584 16.0315 15.704 15.6235 15.944 15.0475C16.784 13.4875 17.9 12.2515 19.292 11.3395C20.684 10.4035 22.292 9.93553 24.116 9.93553C25.556 9.93553 26.84 10.2355 27.968 10.8355C29.12 11.4115 30.008 12.2035 30.632 13.2115C31.256 14.2195 31.568 15.3475 31.568 16.5955C31.568 17.7715 31.316 18.8755 30.812 19.9075C30.332 20.9395 29.756 21.8515 29.084 22.6435C28.412 23.4355 27.536 24.3595 26.456 25.4155L23.864 27.9715C21.704 30.0355 20.084 31.6795 19.004 32.9035H26.024C26.888 32.9035 27.584 32.8195 28.112 32.6515C28.64 32.4835 29.168 32.1835 29.696 31.7515C30.224 31.3195 30.968 30.5875 31.928 29.5555C32.168 29.2435 32.372 29.0275 32.54 28.9075C32.732 28.7635 32.936 28.6915 33.152 28.6915Z" fill="white"/>
</svg>
