<svg width="87" height="124" viewBox="0 0 87 124" fill="none" xmlns="http://www.w3.org/2000/svg">
<path opacity="0.2" d="M0.245117 124L1.73926 116.778L44.2393 78.3457C48.7217 74.2507 52.9827 70.2663 57.0225 66.3926C61.0622 62.5189 64.6315 58.5898 67.7305 54.6055C70.8848 50.5658 73.3473 46.36 75.1182 41.9883C76.9443 37.5612 77.8574 32.7744 77.8574 27.6279C77.8574 21.7067 76.0312 17.0306 72.3789 13.5996C68.7266 10.1133 63.7461 8.37012 57.4375 8.37012C54.2279 8.37012 51.0459 8.78516 47.8916 9.61523C44.7926 10.4453 41.6937 11.6628 38.5947 13.2676C35.4958 14.8724 32.3691 16.8369 29.2148 19.1611L25.1475 13.1846C30.5153 9.08952 35.9661 6.01823 41.5 3.9707C47.0339 1.92318 52.5677 0.899414 58.1016 0.899414C63.9674 0.899414 69.0033 2.00618 73.209 4.21973C77.4701 6.37793 80.735 9.39388 83.0039 13.2676C85.3281 17.1413 86.4902 21.6237 86.4902 26.7148C86.4902 33.9642 84.9961 40.6325 82.0078 46.7197C79.0195 52.7516 74.7585 58.6729 69.2246 64.4834C63.7461 70.2939 57.2715 76.5195 49.8008 83.1602L13.0283 115.865V116.197H73.458L71.9639 124H0.245117Z" fill="white"/>
</svg>
