<svg width="87" height="126" viewBox="0 0 87 126" fill="none" xmlns="http://www.w3.org/2000/svg">
<path opacity="0.2" d="M32.6934 125.66C25.9421 125.66 19.9102 124.996 14.5977 123.668C9.28516 122.34 4.66439 120.652 0.735352 118.604V110.304C4.49837 112.407 9.22982 114.288 14.9297 115.948C20.6296 117.553 26.6061 118.355 32.8594 118.355C38.3379 118.355 43.263 117.636 47.6348 116.197C52.0065 114.703 55.7142 112.656 58.7578 110.055C61.8568 107.454 64.2087 104.355 65.8135 100.758C67.4183 97.1055 68.2207 93.0658 68.2207 88.6387C68.2207 83.3262 67.0309 78.8991 64.6514 75.3574C62.3271 71.8158 59.0068 69.1595 54.6904 67.3887C50.4294 65.6178 45.3382 64.7324 39.417 64.7324H27.0488L28.46 57.4277H41.0771C45.5042 57.4277 49.876 56.819 54.1924 55.6016C58.5088 54.3841 62.4378 52.5579 65.9795 50.123C69.5212 47.6882 72.3434 44.5892 74.4463 40.8262C76.6045 37.0632 77.6836 32.6361 77.6836 27.5449C77.6836 21.679 75.7191 17.0029 71.79 13.5166C67.9163 10.0303 62.9082 8.28711 56.7656 8.28711C51.0104 8.28711 45.5042 9.25553 40.2471 11.1924C34.9899 13.1292 29.7051 15.8962 24.3926 19.4932L20.4082 13.2676C25.61 9.61523 31.2546 6.65462 37.3418 4.38574C43.4844 2.06152 50.1527 0.899414 57.3467 0.899414C63.2679 0.899414 68.3867 2.00618 72.7031 4.21973C77.0195 6.37793 80.3398 9.42155 82.6641 13.3506C85.0436 17.2796 86.2334 21.7897 86.2334 26.8809C86.2334 33.1341 84.8499 38.6403 82.083 43.3994C79.3161 48.1032 75.5807 51.9492 70.877 54.9375C66.2285 57.9258 61.0267 59.9456 55.2715 60.9971V61.4951C61.8014 62.7126 67.0586 65.6455 71.043 70.2939C75.0273 74.9424 77.0195 80.9743 77.0195 88.3896C77.0195 93.5915 76.0511 98.4613 74.1143 102.999C72.1774 107.481 69.3275 111.438 65.5645 114.869C61.8014 118.245 57.153 120.901 51.6191 122.838C46.1406 124.719 39.832 125.66 32.6934 125.66Z" fill="white"/>
</svg>
