<svg width="86" height="124" viewBox="0 0 86 124" fill="none" xmlns="http://www.w3.org/2000/svg">
<path opacity="0.2" d="M28.6143 123.66C24.8512 123.66 21.2266 123.383 17.7402 122.83C14.2539 122.277 11.0443 121.474 8.11133 120.423C5.17839 119.371 2.60514 118.154 0.391602 116.771V108.138C3.87793 110.517 8.139 112.482 13.1748 114.031C18.266 115.581 23.4954 116.355 28.8633 116.355C34.4525 116.355 39.5713 115.581 44.2197 114.031C48.8682 112.426 52.8802 110.102 56.2559 107.059C59.6315 104.015 62.2324 100.307 64.0586 95.9355C65.8848 91.5085 66.7979 86.445 66.7979 80.7451C66.7979 73.1637 64.529 67.1318 59.9912 62.6494C55.5088 58.167 49.1449 55.9258 40.8994 55.9258C36.5277 55.9258 32.654 56.2578 29.2783 56.9219C25.9027 57.5306 22.195 58.3883 18.1553 59.4951L14.1709 56.1748L30.6064 0.642578H85.2256L83.6484 8.44531H36.334L23.4678 51.4434C25.958 50.7793 28.7526 50.1706 31.8516 49.6172C34.9505 49.0638 38.6582 48.7871 42.9746 48.7871C49.5046 48.7871 55.2044 50.0876 60.0742 52.6885C64.944 55.234 68.7347 58.8311 71.4463 63.4795C74.1579 68.1279 75.5137 73.6064 75.5137 79.915C75.5137 86.445 74.4346 92.3939 72.2764 97.7617C70.1182 103.074 66.9915 107.667 62.8965 111.541C58.8568 115.415 53.9316 118.403 48.1211 120.506C42.3659 122.609 35.8636 123.66 28.6143 123.66Z" fill="white"/>
</svg>
